<?xml version="1.0" standalone="no"?><!-- Generator: Gravit.io --><svg xmlns="http://www.w3.org/2000/svg" xmlns:xlink="http://www.w3.org/1999/xlink" style="isolation:isolate" viewBox="0 0 300 300" width="300" height="300"><defs><clipPath id="_clipPath_ZqYbX2hE8DVBg2lD5EvbEmf1DtyWiEqI"><rect width="300" height="300"/></clipPath></defs><g clip-path="url(#_clipPath_ZqYbX2hE8DVBg2lD5EvbEmf1DtyWiEqI)"><g id="bookshelf"><g id="Group"><path d=" M 62.5 45 L 97.5 45 C 102.338 45 106.25 48.928 106.25 53.767 L 106.25 228.75 C 106.25 233.588 102.338 237.5 97.5 237.5 L 62.5 237.5 C 57.661 237.5 53.75 233.588 53.75 228.75 L 53.75 53.759 C 53.75 48.929 57.661 45 62.5 45 Z " fill="rgb(63,149,212)"/><path d=" M 71.25 228.75 L 71.25 53.759 C 71.25 48.929 75.162 45 80 45 L 62.5 45 C 57.661 45 53.75 48.928 53.75 53.759 L 53.75 228.75 C 53.75 233.588 57.661 237.5 62.5 237.5 L 80 237.5 C 75.162 237.5 71.25 233.58 71.25 228.75 Z " fill="rgb(54,127,180)"/><path d=" M 10 237.5 L 290 237.5 L 290 290 L 10 290 L 10 237.5 Z " fill="rgb(217,150,102)"/><path d=" M 53.75 176.25 L 106.25 176.25 L 106.25 211.268 L 53.75 211.268 L 53.75 176.25 Z " fill="rgb(247,203,139)"/><path d=" M 115 10 L 167.5 10 C 172.338 10 176.25 13.929 176.25 18.767 L 176.25 228.75 C 176.25 233.588 172.338 237.5 167.5 237.5 L 115 237.5 C 110.161 237.5 106.25 233.588 106.25 228.75 L 106.25 18.759 C 106.25 13.929 110.161 10 115 10 Z " fill="rgb(52,152,134)"/><path d=" M 132.5 202.509 L 150 202.509 L 150 80 L 132.5 80 C 132.5 80 132.5 202.509 132.5 202.509 Z  M 132.5 45 L 132.5 62.5 L 150 62.5 L 150 45 L 132.5 45 Z " fill="rgb(154,204,195)"/><path d=" M 185 62.5 L 237.5 62.5 C 242.339 62.5 246.25 66.429 246.25 71.25 L 246.25 228.75 C 246.25 233.588 242.339 237.5 237.5 237.5 L 185 237.5 C 180.162 237.5 176.25 233.588 176.25 228.75 L 176.25 71.25 C 176.25 66.429 180.162 62.5 185 62.5 Z " fill="rgb(226,87,76)"/><rect x="53.75" y="176.25" width="17.5" height="35.018" transform="matrix(1,0,0,1,0,0)" fill="rgb(210,173,119)"/><path d=" M 123.75 228.75 L 123.75 18.759 C 123.75 13.93 127.662 10 132.5 10 L 115 10 C 110.161 10 106.25 13.929 106.25 18.759 L 106.25 228.751 C 106.25 233.589 110.161 237.501 115 237.501 L 132.5 237.501 C 127.662 237.5 123.75 233.58 123.75 228.75 Z " fill="rgb(44,129,114)"/><path d=" M 193.75 228.75 L 193.75 71.25 C 193.75 66.429 197.662 62.5 202.5 62.5 L 185 62.5 C 180.162 62.5 176.25 66.429 176.25 71.25 L 176.25 228.75 C 176.25 233.588 180.162 237.5 185 237.5 L 202.5 237.5 C 197.662 237.5 193.75 233.58 193.75 228.75 Z " fill="rgb(192,74,64)"/><path d=" M 176.25 150 L 246.25 150 L 246.25 115 L 176.25 115 L 176.25 150 Z  M 176.25 97.501 L 176.25 106.268 L 246.25 106.268 L 246.25 97.501 L 176.25 97.501 Z " fill="rgb(247,203,139)"/><g id="Group"><rect x="176.25" y="97.501" width="17.5" height="8.767" transform="matrix(1,0,0,1,0,0)" fill="rgb(210,173,119)"/><rect x="176.25" y="115" width="17.5" height="35" transform="matrix(1,0,0,1,0,0)" fill="rgb(210,173,119)"/></g></g></g><g style="isolation:isolate" id="Layer 0"/><g transform="matrix(1,0,0,1,-9.25,209)"><text transform="matrix(1,0,0,1,46.102,76.957)" style="font-family:&quot;Open Sans&quot;;font-weight:400;font-size:72px;font-style:normal;fill:#626868;stroke:none;">Renter</text></g><g id="cloud"><path d=" M 269.646 48.105 C 269.335 27.388 250.175 10 226.555 10 C 211.507 10 197.377 17.157 189.576 27.471 C 186.149 25.464 182.032 24.289 177.603 24.289 C 165.644 24.289 155.948 32.82 155.948 43.342 C 155.948 43.706 155.986 44.061 156.011 44.423 C 155.983 44.857 155.948 45.295 155.948 45.724 C 145.153 50.277 137 61.102 137 72.29 C 137 87.806 151.428 100.5 169.063 100.5 L 235.401 100.5 C 235.775 100.5 236.137 100.462 236.506 100.45 C 236.876 100.462 237.239 100.5 237.613 100.5 L 264.148 100.5 C 280.566 100.5 294 88.68 294 74.236 C 294 61.444 283.459 50.394 269.646 48.105 Z " fill="rgb(127,171,218)" vector-effect="non-scaling-stroke" stroke-width="5.078" stroke="rgb(115,131,191)" stroke-linejoin="miter" stroke-linecap="round" stroke-miterlimit="10"/><path d=" M 269.646 48.105 C 269.646 48.105 262.784 47.212 256.103 48.105" fill="rgb(127,171,218)" vector-effect="non-scaling-stroke" stroke-width="5.078" stroke="rgb(115,131,191)" stroke-linejoin="miter" stroke-linecap="round" stroke-miterlimit="10"/><path d=" M 155.948 43.342 C 155.948 32.82 165.644 24.289 177.603 24.289 C 189.563 24.289 199.259 32.82 199.259 43.342" fill="rgb(127,171,218)" vector-effect="non-scaling-stroke" stroke-width="5.078" stroke="rgb(115,131,191)" stroke-linejoin="miter" stroke-linecap="round" stroke-miterlimit="10"/></g></g></svg>